<?xml version="1.0" standalone="no"?>
<!DOCTYPE svg PUBLIC "-//W3C//DTD SVG 20010904//EN"
 "http://www.w3.org/TR/2001/REC-SVG-20010904/DTD/svg10.dtd">
<svg version="1.0" xmlns="http://www.w3.org/2000/svg"
 width="841.000000pt" height="841.000000pt" viewBox="0 0 841.000000 841.000000"
 preserveAspectRatio="xMidYMid meet">

<g transform="translate(0.000000,841.000000) scale(0.100000,-0.100000)"
fill="#000000" stroke="none">
<path d="M2150 5920 l0 -210 1316 -2 1317 -3 -323 -355 c-178 -195 -364 -400
-415 -455 -91 -100 -509 -559 -1374 -1510 -250 -275 -480 -527 -510 -560 -31
-33 -97 -105 -147 -160 -50 -55 -143 -158 -208 -229 -64 -71 -115 -130 -113
-132 2 -3 3679 -4 3845 -1 33 0 33 1 10 14 -18 11 -19 13 -3 8 11 -4 34 -8 50
-11 24 -4 26 -3 10 5 -16 7 -10 9 23 8 32 -1 46 3 54 16 6 11 16 16 28 12 10
-3 21 -1 25 4 4 7 -1 9 -12 5 -17 -5 -17 -5 1 10 10 8 15 19 12 24 -7 12 20
10 31 -3 4 -4 2 -5 -4 -1 -7 4 -13 2 -13 -4 0 -17 39 -1 69 27 23 23 24 24 4
14 -19 -10 -22 -9 -17 4 4 9 17 14 33 13 34 -2 54 10 47 29 -3 8 -2 12 2 9 4
-2 12 -2 17 2 15 11 41 47 29 39 -12 -7 -12 29 1 40 4 5 5 3 2 -3 -4 -7 -1
-17 7 -23 10 -9 15 -8 20 4 4 11 2 14 -7 9 -7 -4 -9 -3 -4 2 5 5 13 10 18 10
5 1 12 2 17 3 4 0 13 10 20 22 8 12 9 19 4 16 -11 -7 -9 30 3 40 4 5 5 3 2 -3
-4 -7 -1 -17 7 -23 10 -9 15 -8 20 4 4 11 2 14 -7 9 -7 -4 -9 -3 -4 2 5 5 13
10 18 10 5 1 12 2 17 3 4 0 13 10 20 22 8 12 9 19 4 16 -11 -7 -9 30 3 40 4 5
5 3 2 -3 -4 -7 -1 -17 7 -23 10 -9 15 -8 20 4 4 11 2 14 -7 9 -7 -4 -9 -3 -4
2 5 5 13 10 18 10 5 1 12 2 17 3 4 0 13 10 20 22 8 12 9 19 4 16 -11 -7 -9 30
3 40 4 5 5 3 2 -3 -4 -7 -1 -17 7 -23 10 -9 15 -8 20 4 4 11 2 14 -7 9 -7 -4
-9 -3 -4 2 5 5 13 10 18 10 5 1 12 2 17 3 4 0 13 10 20 22 8 12 9 19 4 16 -11
-7 -9 30 3 40 4 5 5 3 2 -3 -4 -7 -1 -17 7 -23 10 -9 15 -8 20 4 4 11 2 14 -7
9 -7 -4 -9 -3 -4 2 5 5 13 10 18 10 5 1 12 2 17 3 4 0 13 10 20 22 8 12 9 19
4 16 -11 -7 -9 30 3 40 4 5 5 3 2 -3 -4 -7 -1 -17 7 -23 10 -9 15 -8 20 4 4
11 2 14 -7 9 -7 -4 -9 -3 -4 2 5 5 13 10 18 10 5 1 12 2 17 3 4 0 13 10 20 22
8 12 9 19 4 16 -11 -7 -9 30 3 40 4 5 5 3 2 -3 -4 -7 -1 -17 7 -23 10 -9 15
-8 20 4 4 11 2 14 -7 9 -7 -4 -9 -3 -4 2 5 5 13 10 18 10 5 1 12 2 17 3 4 0
13 10 20 22 8 12 9 19 4 16 -11 -7 -9 30 3 40 4 5 5 3 2 -3 -4 -7 -1 -17 7
-23 10 -9 15 -8 20 4 4 11 2 14 -7 9 -7 -4 -9 -3 -4 2 5 5 13 10 18 10 5 1 12
2 17 3 4 0 13 10 20 22 8 12 9 19 4 16 -11 -7 -9 30 3 40 4 5 5 3 2 -3 -4 -7
-1 -17 7 -23 10 -9 15 -8 20 4 4 11 2 14 -6 9 -7 -4 -8 -3 -4 5 4 6 11 9 16 6
12 -8 41 25 34 37 -4 7 -2 8 4 4 7 -4 12 -2 12 4 0 6 6 8 13 4 7 -4 9 -3 4 2
-5 5 -13 9 -19 9 -6 0 -12 8 -14 18 -3 21 -218 238 -240 241 -19 3 -100 -72
-96 -89 1 -7 -3 -17 -9 -21 -8 -5 -9 -3 -3 7 4 8 -6 3 -23 -11 -17 -14 -28
-28 -26 -32 2 -5 -1 -8 -8 -8 -7 0 -9 -10 -6 -27 6 -30 -1 -53 -15 -53 -5 0
-6 5 -3 10 3 6 -1 10 -10 10 -9 0 -13 -4 -10 -10 4 -6 -2 -7 -18 -1 -23 9 -24
8 -24 -35 0 -24 -3 -47 -7 -51 -3 -3 -6 -1 -6 5 0 7 -7 12 -16 12 -9 0 -12 -5
-8 -12 4 -7 3 -8 -5 -4 -6 4 -9 12 -6 17 4 5 1 9 -4 9 -6 0 -11 -5 -11 -11 0
-5 -4 -8 -9 -5 -5 3 -8 -11 -7 -32 3 -43 -2 -62 -16 -62 -5 0 -6 5 -3 10 3 6
-1 10 -10 10 -10 0 -13 -5 -9 -12 4 -7 3 -8 -5 -4 -6 4 -9 12 -6 17 4 5 1 9
-4 9 -6 0 -11 -5 -11 -11 0 -5 -4 -8 -9 -5 -4 3 -8 -15 -8 -40 0 -24 -3 -47
-7 -51 -3 -3 -6 -1 -6 5 0 7 -7 12 -16 12 -9 0 -12 -5 -8 -12 4 -7 3 -8 -5 -4
-6 4 -9 12 -6 17 11 16 -4 10 -26 -12 -14 -14 -17 -24 -10 -33 5 -6 9 -21 8
-33 -1 -17 -8 -21 -35 -21 -29 0 -33 3 -29 20 5 19 5 19 -14 2 -11 -10 -18
-23 -15 -30 3 -7 0 -11 -7 -8 -18 6 -81 -61 -72 -77 6 -8 4 -10 -4 -4 -13 8
-81 -50 -81 -69 0 -6 5 -4 11 4 9 13 10 13 6 0 -2 -8 -11 -14 -21 -12 -9 2
-16 -2 -16 -8 0 -9 12 -14 30 -12 3 0 6 -8 6 -18 0 -10 -4 -16 -9 -13 -4 2
-15 -1 -24 -9 -14 -11 -16 -11 -8 1 6 11 4 13 -9 8 -11 -4 -15 -3 -11 4 4 6
13 8 21 5 7 -3 16 -1 19 4 3 4 -1 10 -7 13 -17 5 -89 -43 -82 -54 3 -5 -2 -12
-10 -15 -26 -10 -18 -23 12 -20 23 3 28 0 29 -17 2 -20 1 -21 -11 -4 -15 20
-28 23 -21 5 4 -10 -12 -13 -60 -14 -36 -1 -65 2 -65 7 0 5 25 7 55 6 30 -2
55 -2 55 0 0 1 -14 10 -31 19 -23 11 -34 13 -42 5 -14 -14 -30 -14 -22 -1 3 6
1 10 -4 10 -6 0 -11 -4 -11 -10 0 -6 -9 -6 -25 0 -14 5 -31 7 -38 4 -8 -3 -40
9 -72 25 -32 17 -63 27 -69 23 -20 -12 -35 -10 -29 5 4 11 8 11 13 3 4 -7 10
-8 13 -3 9 14 -49 77 -62 69 -6 -4 -10 -4 -9 1 5 15 -60 86 -71 78 -6 -3 -10
-3 -9 2 5 15 -60 86 -71 78 -6 -3 -10 -3 -9 2 5 15 -60 86 -71 78 -6 -3 -10
-3 -9 2 6 16 -60 86 -73 78 -7 -5 -10 -4 -6 1 3 6 -12 29 -34 53 -35 37 -42
41 -57 30 -14 -11 -15 -11 -5 1 10 10 7 19 -14 44 -14 17 -31 31 -37 31 -6 1
-10 6 -9 12 1 6 -6 18 -15 26 -16 15 -18 15 -18 -2 0 -10 5 -18 11 -17 5 2 7
1 2 -1 -4 -3 -5 -9 -2 -13 3 -5 0 -12 -6 -16 -8 -4 -9 -3 -5 4 4 7 3 12 -2 12
-5 0 -9 14 -10 31 -1 33 -7 44 -25 44 -7 1 -11 6 -10 12 1 6 -7 19 -17 28 -24
21 -27 13 -4 -9 9 -9 11 -16 4 -16 -6 0 -8 -4 -5 -10 4 -6 -1 -7 -11 -3 -12 4
-14 8 -6 11 8 2 10 8 3 15 -5 7 -11 21 -13 32 -2 11 -10 20 -18 20 -8 1 -14 6
-13 12 1 6 -6 18 -15 26 -16 15 -18 15 -18 -2 0 -10 5 -18 11 -17 5 2 7 1 2
-1 -4 -3 -5 -9 -2 -13 3 -5 0 -12 -6 -16 -8 -4 -9 -3 -5 4 4 7 3 12 -2 12 -5
0 -9 14 -10 31 -1 33 -7 44 -25 44 -7 1 -11 6 -10 12 1 6 -7 19 -17 28 -24 21
-27 13 -4 -9 9 -9 11 -16 4 -16 -6 0 -8 -4 -5 -10 4 -6 -1 -7 -11 -3 -12 4
-14 8 -6 11 8 2 10 8 3 15 -5 7 -11 21 -13 32 -2 11 -10 20 -18 20 -8 1 -14 6
-13 12 1 6 -6 18 -15 26 -16 15 -18 15 -18 -2 0 -10 5 -18 11 -17 5 2 7 1 2
-1 -4 -3 -5 -9 -2 -13 3 -5 0 -12 -6 -16 -8 -4 -9 -3 -5 4 4 7 3 12 -2 12 -5
0 -9 14 -10 31 -1 33 -7 44 -25 44 -7 1 -11 6 -10 12 1 6 -7 19 -17 28 -24 21
-27 13 -4 -9 9 -9 11 -16 4 -16 -6 0 -8 -4 -5 -10 4 -6 -1 -7 -11 -3 -12 4
-14 8 -6 11 8 2 10 8 3 15 -5 7 -11 21 -13 32 -2 11 -10 20 -18 20 -8 1 -14 6
-13 12 1 6 -6 18 -15 26 -16 15 -18 15 -18 -2 0 -10 5 -18 11 -17 5 2 7 1 2
-1 -4 -3 -5 -9 -2 -13 3 -5 0 -12 -6 -16 -8 -4 -9 -3 -5 4 4 7 3 12 -2 12 -5
0 -9 14 -10 31 -1 33 -7 44 -25 44 -7 1 -11 6 -10 12 1 6 -7 19 -17 28 -24 21
-27 13 -4 -9 9 -9 11 -16 4 -16 -6 0 -8 -4 -5 -10 4 -6 -1 -7 -11 -3 -11 4
-13 8 -6 11 7 2 8 9 2 20 -5 9 -11 25 -14 34 -5 18 -29 20 -53 5 -7 -5 -13 -5
-14 0 0 4 -2 18 -3 30 -1 12 1 20 6 17 5 -4 7 -12 4 -19 -3 -9 2 -13 13 -12
18 1 18 2 2 24 -9 12 -20 23 -24 23 -5 0 -5 5 -2 10 3 6 -4 11 -17 11 -13 1
-34 3 -48 6 -14 2 -32 5 -41 6 -14 1 -13 6 7 33 21 27 22 32 9 38 -9 3 -14 2
-11 -3 3 -5 -8 -24 -24 -42 -16 -19 -30 -28 -30 -21 0 6 -4 12 -9 12 -4 0 -7
-24 -6 -53 l2 -53 -36 2 c-45 1 -63 -5 -54 -19 9 -16 11 -67 2 -67 -13 0 -20
18 -9 25 5 3 10 10 10 15 0 6 -9 2 -19 -7 -11 -9 -18 -19 -16 -23 2 -3 -4 -6
-14 -6 -10 0 -18 5 -18 12 0 6 7 11 15 10 8 -1 17 5 20 13 3 8 0 11 -7 7 -7
-4 -9 -1 -5 8 8 22 53 48 67 39 9 -5 9 -4 0 8 -10 13 -5 24 34 68 25 28 52 50
59 47 16 -6 32 14 29 36 -4 24 1428 1586 1461 1594 13 3 24 10 24 16 0 5 -5 6
-12 2 -7 -4 -8 -3 -4 5 6 9 11 9 22 0 9 -7 18 -8 27 -2 15 12 113 8 151 -6 17
-7 25 -7 21 -1 -3 6 -1 10 4 10 6 0 11 -6 11 -13 0 -12 35 -39 56 -43 29 -5
54 -16 54 -24 0 -5 -8 -7 -17 -4 -10 3 -7 -1 6 -9 25 -15 51 -13 51 5 0 5 -4
7 -9 3 -5 -3 -12 -1 -16 5 -3 5 -1 10 4 10 6 0 11 7 11 16 0 14 -2 15 -17 3
-14 -12 -16 -12 -11 1 8 25 31 17 40 -15 6 -23 4 -33 -8 -42 -13 -9 -14 -15
-3 -35 15 -28 130 -142 144 -143 6 -1 9 -6 8 -13 -2 -7 4 -12 13 -12 8 0 13
-4 10 -9 -3 -4 19 -33 48 -64 46 -48 58 -55 83 -51 20 3 24 2 13 -5 -8 -5 -19
-7 -25 -4 -5 4 -1 -3 9 -15 23 -27 27 -27 20 -4 -5 14 -4 14 4 2 6 -8 9 -17 6
-22 -9 -13 104 -120 118 -112 10 6 11 5 1 -7 -10 -13 -7 -21 20 -47 18 -18 36
-29 40 -26 4 4 7 0 7 -8 0 -20 26 -42 40 -33 8 5 8 10 0 20 -7 8 -7 16 -2 19
14 8 22 -30 9 -43 -22 -22 10 -37 77 -36 35 0 63 -2 62 -5 -2 -3 5 -12 14 -21
16 -15 24 -9 111 81 79 82 92 99 79 108 -12 9 -11 10 8 7 14 -3 25 2 29 11 6
17 -33 64 -54 64 -7 0 -12 3 -10 8 2 7 -37 62 -45 62 -2 0 -4 -8 -4 -19 0 -10
6 -17 12 -14 7 2 15 0 19 -6 3 -7 -3 -11 -15 -11 -14 0 -19 -4 -14 -12 4 -8 3
-9 -2 -5 -5 5 -9 25 -9 45 0 35 -2 37 -32 37 -17 0 -35 4 -40 9 -4 4 -2 6 6 4
7 -2 15 7 17 20 4 20 -5 27 -29 23 -5 -1 -5 3 -2 10 9 14 -44 69 -67 69 -10 0
-17 3 -17 8 3 20 -3 32 -22 43 -23 12 -51 -3 -30 -15 6 -4 11 -3 11 3 0 6 7 8
15 5 24 -10 17 -19 -15 -19 -16 -1 -27 1 -25 4 3 2 -1 11 -8 19 -6 9 -7 13 -2
10 6 -4 19 0 30 8 17 13 17 14 1 14 -10 0 -15 5 -11 13 4 6 -1 3 -11 -8 -12
-14 -15 -15 -11 -4 7 20 -28 75 -37 60 -4 -6 -2 -11 5 -11 7 0 2 -8 -9 -19
-12 -10 -19 -21 -15 -25 3 -3 2 -6 -4 -6 -6 0 -14 7 -17 16 -3 8 -2 12 3 9 5
-3 12 -1 16 5 3 6 0 13 -8 15 -14 6 -16 39 -3 52 4 5 7 3 6 -2 -1 -6 -2 -19
-1 -30 1 -16 3 -17 11 -5 6 9 5 17 -1 21 -6 3 -11 10 -12 15 -1 5 -5 8 -9 7
-5 -2 -8 4 -8 12 0 9 -6 12 -16 8 -13 -5 -13 -7 -2 -14 9 -6 7 -8 -9 -6 -42 6
-65 48 -40 73 3 4 5 -3 2 -14 -3 -16 1 -20 16 -17 11 2 17 0 14 -6 -4 -5 -11
-7 -16 -4 -5 4 -9 2 -9 -4 0 -17 17 -21 30 -6 14 17 5 35 -17 35 -9 0 -13 3
-10 7 10 9 -84 102 -98 97 -6 -3 -18 2 -25 11 -7 8 -17 15 -22 15 -7 0 -7 -5
0 -13 8 -10 6 -13 -8 -13 -19 0 -19 1 0 32 l20 31 -38 34 c-20 19 -40 33 -44
32 -5 -2 -8 4 -8 12 0 8 -5 15 -12 15 -6 0 -8 -3 -5 -7 4 -3 2 -12 -5 -20 -9
-11 -7 -13 14 -9 21 3 26 0 26 -18 0 -24 -23 -31 -44 -14 -10 7 -12 40 -4 73
5 23 -1 25 -27 8 -27 -17 -28 -17 -13 1 12 15 12 20 2 23 -6 3 -10 8 -7 13 11
18 -30 34 -96 35 -51 2 -74 7 -89 20 -16 14 -17 20 -8 27 9 5 10 8 1 8 -20 0
-26 -20 -12 -38 10 -13 8 -12 -9 2 -16 14 -19 22 -10 27 9 6 3 17 -20 38 l-32
31 -1730 0 -1730 0 0 -210z m3526 88 c4 -6 2 -14 -5 -16 -9 -3 -9 -7 0 -18 19
-23 5 -39 -37 -39 -27 0 -38 -5 -36 -13 1 -8 -2 -11 -8 -7 -6 3 -8 11 -5 16 4
5 2 9 -2 9 -5 0 -14 -10 -22 -21 -11 -19 -11 -21 3 -16 8 3 18 1 22 -5 4 -6 3
-8 -3 -5 -6 4 -17 -1 -24 -10 -12 -14 -11 -15 11 -10 14 4 19 4 12 1 -6 -3
-10 -10 -6 -15 8 -13 -10 -11 -23 2 -6 6 -9 19 -5 28 5 14 4 14 -14 1 -10 -8
1 9 25 38 43 53 87 92 102 92 4 0 11 -5 15 -12z m195 -25 c-11 -4 -11 -7 0
-13 10 -7 10 -11 0 -24 -18 -22 -31 -20 -26 4 5 28 14 40 28 39 8 0 7 -3 -2
-6z m-353 -138 c0 -13 -4 -22 -8 -20 -4 3 -7 -6 -6 -20 0 -14 5 -25 9 -25 5 0
5 -4 2 -10 -3 -5 -1 -10 5 -10 6 0 8 -4 5 -10 -8 -13 -4 -13 39 5 21 9 36 11
36 5 0 -5 -9 -10 -19 -10 -11 0 -23 -4 -26 -10 -10 -16 -29 -12 -53 11 -20 18
-24 19 -38 5 -18 -18 -24 -19 -44 -6 -16 10 -8 23 16 26 12 2 13 -1 3 -12 -7
-9 -8 -14 -1 -14 12 0 25 18 28 38 2 8 9 21 17 30 8 10 17 25 20 35 9 24 15
21 15 -8z m503 7 c13 -16 13 -19 -2 -35 -16 -17 -16 -16 -13 13 3 21 0 29 -8
24 -7 -4 -8 -3 -4 4 9 15 9 15 27 -6z m-531 -6 c0 -2 -8 -10 -17 -17 -16 -13
-17 -12 -4 4 13 16 21 21 21 13z m613 -122 c-8 -13 -16 -24 -17 -24 -2 0 1 62
3 69 1 2 8 -2 16 -9 12 -10 12 -15 -2 -36z m-689 5 c-6 -11 -24 -2 -24 11 0 5
7 7 15 4 8 -4 12 -10 9 -15z m73 5 c-3 -3 -12 -4 -19 -1 -8 3 -5 6 6 6 11 1
17 -2 13 -5z m103 -4 c-20 -13 -33 -13 -25 0 3 6 14 10 23 10 15 0 15 -2 2
-10z m565 -30 c16 -6 14 -8 -12 -7 -18 0 -30 4 -27 9 6 10 12 9 39 -2z m-361
-101 c4 6 12 11 19 11 6 0 -1 -12 -16 -27 -22 -23 -29 -25 -39 -14 -9 9 -9 12
-1 7 6 -3 14 -2 18 4 3 6 -4 10 -17 11 -22 0 -22 1 -3 8 11 5 23 4 26 -1 4 -6
9 -6 13 1z m43 -26 c0 -16 -2 -21 -7 -14 -5 9 -9 4 -12 -13 -3 -14 0 -30 5
-35 6 -6 8 -13 5 -16 -3 -4 -16 8 -29 26 -19 27 -20 32 -5 26 10 -4 15 -3 11
3 -4 6 22 50 30 50 0 0 1 -12 2 -27z m33 -47 c0 -3 -4 -8 -10 -11 -5 -3 -10
-1 -10 4 0 6 5 11 10 11 6 0 10 -2 10 -4z m38 -3 c-10 -2 -18 -9 -18 -15 0 -6
-3 -9 -6 -5 -10 10 6 27 24 26 15 -1 15 -2 0 -6z m-43 -41 c-3 -3 -11 0 -18 7
-9 10 -8 11 6 5 10 -3 15 -9 12 -12z m68 -35 c21 5 21 5 3 -9 -29 -23 -51 4
-35 42 1 3 4 -5 6 -16 3 -17 9 -21 26 -17z m65 -47 c-2 -6 -8 -6 -18 0 -13 9
-13 11 0 20 15 10 25 0 18 -20z m438 -6 c-3 -8 -1 -14 4 -14 6 0 10 5 10 11 0
5 5 7 10 4 6 -3 10 -10 10 -14 0 -11 -56 -8 -67 3 -4 5 -3 6 5 2 8 -5 12 0 12
14 0 12 4 18 11 15 6 -4 8 -13 5 -21z m-446 -34 c10 -6 12 -12 4 -20 -7 -7
-16 -5 -29 10 -14 15 -15 20 -4 20 8 0 21 -5 29 -10z m625 -140 c-3 -5 -12
-10 -18 -10 -7 0 -6 4 3 10 19 12 23 12 15 0z m-460 -38 c1 -12 1 -22 0 -22
-1 0 -12 11 -25 25 l-24 25 24 -3 c16 -3 24 -11 25 -25z m522 -27 c0 -8 -4
-12 -9 -9 -4 3 -8 9 -8 15 0 5 4 9 8 9 5 0 9 -7 9 -15z m-455 -47 c-9 -9 -8
-17 6 -32 17 -21 17 -21 -5 -2 -18 15 -20 22 -12 38 6 11 13 17 17 14 3 -4 0
-12 -6 -18z m407 -14 c-12 -13 -25 -21 -28 -18 -3 3 2 12 13 19 10 8 15 18 11
24 -4 7 0 8 10 5 14 -6 13 -10 -6 -30z m-29 11 c-7 -9 -15 -13 -17 -11 -7 7 7
26 19 26 6 0 6 -6 -2 -15z m-24 -48 c-2 -13 -25 -44 -50 -69 -38 -38 -47 -43
-57 -32 -10 12 -8 13 6 8 13 -5 16 -4 11 4 -4 8 0 12 10 12 16 0 16 1 -2 16
-10 8 -13 13 -6 9 15 -8 16 7 1 22 -8 8 -7 13 2 18 8 6 10 4 4 -5 -6 -10 -4
-12 8 -7 10 4 25 10 34 14 12 5 10 0 -5 -15 -22 -22 -31 -48 -12 -37 6 3 10
12 10 20 0 7 9 16 20 20 11 3 19 9 19 13 -2 14 1 32 6 32 3 0 3 -10 1 -23z
m-2911 -1246 c-10 -9 -15 -11 -11 -4 3 6 2 14 -3 17 -5 3 -11 0 -14 -8 -6 -15
19 -30 34 -20 5 3 9 1 9 -5 0 -5 -5 -11 -11 -13 -7 -2 -4 -10 7 -18 10 -8 15
-10 11 -4 -3 6 0 11 8 11 8 0 12 -4 9 -9 -3 -4 -3 -12 1 -18 8 -13 35 -1 29
14 -3 7 1 13 8 13 8 0 14 -8 14 -18 0 -10 -3 -16 -7 -13 -4 2 -9 -3 -13 -11
-3 -8 0 -14 6 -12 6 1 13 -4 16 -12 3 -10 0 -11 -9 -5 -12 7 -12 5 0 -9 11
-14 16 -15 29 -5 13 10 14 10 8 1 -4 -7 -5 -17 -1 -23 8 -13 35 -1 29 14 -3 7
1 13 8 13 8 0 14 -8 14 -18 0 -10 -3 -16 -7 -13 -4 2 -10 -3 -13 -12 -3 -8 -2
-12 4 -9 6 3 14 -5 19 -18 6 -14 16 -29 23 -33 11 -6 11 -5 0 8 -10 13 -8 15
20 13 45 -4 45 -4 28 -15 -8 -5 -10 -10 -3 -10 13 0 12 -25 -2 -37 -4 -4 -5
-2 0 6 6 10 4 12 -5 6 -10 -6 -10 -11 3 -20 9 -7 13 -16 9 -20 -4 -5 0 -4 8 1
22 13 68 13 72 0 2 -6 4 -27 3 -48 0 -22 4 -34 10 -30 17 11 64 10 67 -2 2 -6
4 -27 3 -48 0 -22 4 -34 10 -30 17 11 64 10 67 -2 2 -6 4 -27 3 -48 0 -22 4
-34 10 -30 17 11 64 10 67 -2 2 -6 4 -27 3 -48 0 -22 4 -34 10 -30 17 11 64
10 67 -2 2 -6 4 -27 3 -48 0 -22 4 -34 10 -30 17 11 64 10 67 -2 2 -6 4 -27 3
-48 0 -22 4 -34 10 -30 17 11 64 10 67 -2 2 -6 4 -27 3 -48 0 -22 4 -34 10
-30 17 11 64 10 67 -2 2 -6 4 -27 3 -48 0 -22 4 -34 10 -30 17 11 64 10 67 -2
2 -6 4 -27 3 -48 0 -22 4 -34 10 -30 13 9 65 11 66 3 5 -39 4 -53 -4 -58 -6
-3 -7 -1 -3 5 5 8 1 10 -9 5 -13 -4 -14 -8 -4 -14 7 -4 17 -5 21 -3 4 3 8 1 8
-3 0 -5 17 -9 38 -8 l39 1 -4 -40 c-3 -25 0 -42 9 -47 19 -13 30 -11 22 4 -6
9 -4 9 8 -1 12 -10 18 -10 23 -1 12 18 24 -11 20 -46 -1 -17 2 -33 9 -37 17
-12 28 -9 20 5 -6 9 -4 9 8 -1 12 -10 18 -10 23 -1 6 8 10 7 17 -5 9 -17 -5
-46 -22 -46 -19 0 -70 59 -64 74 4 11 2 15 -8 11 -16 -6 -70 39 -81 68 -4 11
-12 15 -19 11 -10 -6 -10 -4 0 8 9 11 10 18 2 23 -5 3 -10 1 -10 -4 0 -6 -5
-11 -11 -11 -8 0 -8 4 -1 13 8 9 -206 11 -1066 9 l-1077 -2 51 52 c28 29 250
271 494 538 243 267 457 497 474 512 24 21 34 24 45 15 11 -10 13 -8 7 13 -6
22 -5 23 5 6 9 -14 8 -21 -6 -35z m2805 -352 c0 -10 -29 -7 -47 4 -7 5 -13 4
-13 -2 0 -5 -9 -9 -20 -8 -21 1 -26 12 -10 22 6 3 10 11 10 17 0 6 -10 3 -22
-8 l-23 -19 18 22 c11 13 25 19 35 16 11 -5 13 -3 7 7 -5 8 8 1 28 -14 20 -16
37 -32 37 -37z m-124 -1 c4 -7 4 -10 -1 -6 -4 4 -15 2 -24 -5 -14 -11 -14 -10
-2 6 16 20 18 21 27 5z m203 -82 c0 -6 -3 -6 -6 2 -4 9 -8 10 -18 2 -10 -8
-15 -8 -20 1 -6 8 -9 8 -15 -1 -4 -7 -7 3 -7 23 l1 35 33 -25 c18 -14 33 -30
32 -37z m-236 26 c3 7 5 4 4 -8 -1 -11 -7 -21 -14 -21 -6 0 -10 4 -7 8 2 4 0
10 -5 14 -5 3 -14 -3 -20 -12 -6 -10 -11 -13 -11 -7 0 19 23 34 36 23 8 -7 14
-6 17 3z m316 -106 c0 -6 -3 -6 -6 2 -4 9 -8 10 -18 2 -10 -8 -15 -8 -20 1 -6
8 -9 8 -15 -1 -4 -7 -7 3 -7 23 l1 35 33 -25 c18 -14 33 -30 32 -37z m-1809
-145 c7 -14 7 -22 -2 -27 -7 -4 -8 -3 -4 4 4 7 3 12 -2 12 -5 0 -9 7 -9 15 0
20 4 19 17 -4z m80 -81 c8 -15 8 -18 -3 -14 -8 3 -14 11 -14 19 0 20 4 19 17
-5z m80 -79 c7 -14 7 -22 -2 -27 -7 -4 -8 -3 -4 4 4 7 3 12 -2 12 -5 0 -9 7
-9 15 0 20 4 19 17 -4z m846 -79 c-2 -11 -12 -17 -29 -18 -22 -1 -24 1 -14 18
7 10 15 18 20 18 4 0 5 6 1 13 -6 9 -4 9 8 -1 9 -7 15 -21 14 -30z m-766 -2
c8 -15 8 -18 -3 -14 -8 3 -14 11 -14 19 0 20 4 19 17 -5z m695 -52 c5 4 4 0
-1 -8 -5 -8 -9 -19 -9 -25 0 -5 -13 -11 -28 -13 -26 -3 -27 -2 -15 17 7 12 16
21 21 21 4 0 5 6 1 13 -6 9 -5 9 8 0 8 -7 19 -9 23 -5z m-615 -27 c7 -14 7
-22 -2 -27 -7 -4 -8 -3 -4 4 4 7 3 12 -2 12 -5 0 -9 7 -9 15 0 20 4 19 17 -4z
m163 -142 c-8 -30 -18 -30 -18 1 0 16 5 26 11 23 7 -2 9 -13 7 -24z m297 21
c0 -5 -5 -10 -11 -10 -5 0 -7 5 -4 10 3 6 8 10 11 10 2 0 4 -4 4 -10z m-260
-14 c0 -3 -4 -8 -10 -11 -5 -3 -10 -1 -10 4 0 6 5 11 10 11 6 0 10 -2 10 -4z
m70 -16 c12 -8 11 -10 -5 -8 -40 3 -66 -2 -60 -12 3 -5 1 -10 -5 -10 -21 0 -4
24 21 31 34 10 32 10 49 -1z m20 -26 c0 -2 -17 -4 -37 -4 -24 0 -33 3 -25 9
12 7 62 4 62 -5z m-472 -156 c-2 -7 7 -14 20 -16 21 -3 28 -13 16 -25 -8 -8
-54 34 -48 45 8 12 14 10 12 -4z m822 -18 c0 -5 -5 -10 -11 -10 -5 0 -7 5 -4
10 3 6 8 10 11 10 2 0 4 -4 4 -10z m17 -27 c-8 -8 -21 -13 -29 -10 -9 4 -6 8
10 12 12 4 22 15 23 24 0 11 2 12 6 3 3 -8 -2 -21 -10 -29z m69 25 c5 -7 3 -8
-6 -3 -10 6 -12 4 -6 -11 5 -14 4 -16 -5 -7 -6 6 -8 16 -5 22 9 14 13 14 22
-1z m-830 -25 c-1 -16 2 -35 8 -43 9 -13 9 -13 -6 -2 -10 8 -14 20 -11 29 5
13 2 15 -13 9 -18 -7 -18 -6 1 13 11 11 21 20 22 20 1 1 1 -11 -1 -26z m119
-56 c41 0 45 -1 25 -9 -14 -5 -33 -7 -42 -4 -10 2 -21 0 -24 -5 -3 -5 -11 -9
-17 -9 -7 0 -6 4 3 10 13 9 13 10 0 11 -8 1 -18 1 -22 0 -5 0 -8 4 -8 10 0 7
7 8 18 3 9 -4 39 -7 67 -7z m560 -8 c0 -7 -8 -14 -18 -15 -12 -1 -13 -1 -2 3
8 2 13 9 9 14 -3 5 -10 6 -16 3 -7 -4 -8 -2 -4 5 10 15 31 9 31 -10z m-525
-19 c-13 -9 -13 -10 0 -10 13 0 13 -1 0 -10 -8 -5 -19 -10 -25 -10 -5 0 -3 5
5 10 12 8 12 10 -5 11 l-20 0 20 9 c27 12 43 12 25 0z m147 -47 c-9 -8 -87
-12 -82 -4 2 4 22 7 45 8 24 1 40 -1 37 -4z m58 -4 c-20 -9 65 -4 110 7 15 4
17 3 5 -4 -22 -14 -108 -23 -138 -15 -24 6 -25 7 -7 14 29 11 55 10 30 -2z"/>
<path d="M5622 5984 c-18 -15 -32 -32 -32 -38 0 -6 10 -1 22 11 l21 22 19 -21
c10 -12 18 -16 18 -10 0 6 -7 17 -15 26 -14 13 -13 16 2 25 10 6 13 11 7 11
-5 0 -25 -12 -42 -26z"/>
<path d="M5620 5950 c0 -5 5 -10 10 -10 6 0 10 5 10 10 0 6 -4 10 -10 10 -5 0
-10 -4 -10 -10z"/>
<path d="M5481 5796 c-9 -10 -8 -15 2 -19 8 -3 13 3 14 14 2 23 -1 24 -16 5z"/>
<path d="M6093 5745 c0 -8 4 -12 9 -9 5 3 6 10 3 15 -9 13 -12 11 -12 -6z"/>
<path d="M3873 3580 c-2 -19 8 -26 20 -14 7 7 -2 34 -12 34 -4 0 -7 -9 -8 -20z"/>
<path d="M3930 3507 c0 -5 7 -7 14 -4 10 4 13 1 9 -9 -7 -19 11 -18 28 3 10
11 10 14 2 9 -7 -4 -13 -3 -13 3 0 5 -9 9 -20 8 -11 -1 -20 -5 -20 -10z"/>
<path d="M3972 3471 c-11 -7 -11 -9 0 -14 9 -3 15 1 15 9 0 8 -1 14 -1 14 -1
0 -7 -4 -14 -9z"/>
<path d="M4010 3427 c0 -5 7 -7 14 -4 10 4 13 1 9 -9 -7 -19 11 -18 28 3 10
11 10 14 2 9 -7 -4 -13 -3 -13 3 0 5 -9 9 -20 8 -11 -1 -20 -5 -20 -10z"/>
<path d="M4052 3391 c-11 -7 -11 -9 0 -14 9 -3 15 1 15 9 0 8 -1 14 -1 14 -1
0 -7 -4 -14 -9z"/>
<path d="M4090 3347 c0 -5 7 -7 14 -4 10 4 13 1 9 -9 -7 -19 11 -18 28 3 10
11 10 14 2 9 -7 -4 -13 -3 -13 3 0 5 -9 9 -20 8 -11 -1 -20 -5 -20 -10z"/>
<path d="M4132 3311 c-11 -7 -11 -9 0 -14 9 -3 15 1 15 9 0 8 -1 14 -1 14 -1
0 -7 -4 -14 -9z"/>
<path d="M4170 3267 c0 -5 7 -7 14 -4 10 4 13 1 9 -9 -7 -19 11 -18 28 3 10
11 10 14 2 9 -7 -4 -13 -3 -13 3 0 5 -9 9 -20 8 -11 -1 -20 -5 -20 -10z"/>
<path d="M4212 3231 c-11 -7 -11 -9 0 -14 9 -3 15 1 15 9 0 8 -1 14 -1 14 -1
0 -7 -4 -14 -9z"/>
<path d="M4250 3187 c0 -5 7 -7 14 -4 10 4 13 1 9 -9 -7 -19 11 -18 28 3 10
11 10 14 2 9 -7 -4 -13 -3 -13 3 0 5 -9 9 -20 8 -11 -1 -20 -5 -20 -10z"/>
<path d="M4292 3151 c-11 -7 -11 -9 0 -14 9 -3 15 1 15 9 0 8 -1 14 -1 14 -1
0 -7 -4 -14 -9z"/>
<path d="M4330 3107 c0 -5 7 -7 14 -4 10 4 13 1 9 -9 -7 -19 11 -18 28 3 10
11 10 14 2 9 -7 -4 -13 -3 -13 3 0 5 -9 9 -20 8 -11 -1 -20 -5 -20 -10z"/>
<path d="M4372 3071 c-11 -7 -11 -9 0 -14 9 -3 15 1 15 9 0 8 -1 14 -1 14 -1
0 -7 -4 -14 -9z"/>
<path d="M4410 3027 c0 -5 7 -7 14 -4 10 4 13 1 9 -9 -7 -19 11 -18 28 3 10
11 10 14 2 9 -7 -4 -13 -3 -13 3 0 5 -9 9 -20 8 -11 -1 -20 -5 -20 -10z"/>
<path d="M4452 2991 c-11 -7 -11 -9 0 -14 9 -3 15 1 15 9 0 8 -1 14 -1 14 -1
0 -7 -4 -14 -9z"/>
<path d="M4490 2947 c0 -5 7 -7 14 -4 10 4 13 1 9 -9 -7 -19 11 -18 28 3 10
11 10 14 2 9 -7 -4 -13 -3 -13 3 0 5 -9 9 -20 8 -11 -1 -20 -5 -20 -10z"/>
<path d="M4532 2911 c-11 -7 -11 -9 0 -14 9 -3 15 1 15 9 0 8 -1 14 -1 14 -1
0 -7 -4 -14 -9z"/>
<path d="M4570 2867 c0 -5 7 -7 14 -4 10 4 13 1 9 -9 -7 -19 11 -18 28 3 10
11 10 14 2 9 -7 -4 -13 -3 -13 3 0 5 -9 9 -20 8 -11 -1 -20 -5 -20 -10z"/>
<path d="M4612 2831 c-11 -7 -11 -9 0 -14 9 -3 15 1 15 9 0 8 -1 14 -1 14 -1
0 -7 -4 -14 -9z"/>
<path d="M4650 2787 c0 -5 7 -6 16 -3 8 3 12 2 9 -3 -10 -18 13 -21 26 -4 10
12 10 14 2 9 -7 -4 -13 -3 -13 3 0 5 -9 9 -20 8 -11 -1 -20 -5 -20 -10z"/>
<path d="M4769 2707 c6 -8 7 -18 3 -22 -4 -5 -1 -5 6 -1 10 6 10 11 1 22 -6 8
-14 14 -16 14 -3 0 0 -6 6 -13z"/>
<path d="M4837 2613 c6 -16 25 -13 31 5 2 6 -6 10 -16 9 -12 -1 -18 -6 -15
-14z"/>
<path d="M4913 2535 c5 -14 29 -13 34 2 3 7 -4 11 -16 10 -12 -1 -20 -6 -18
-12z"/>
<path d="M6402 3488 c-16 -16 -15 -33 1 -19 10 8 17 7 25 -1 8 -8 12 -8 12 -1
0 20 -25 34 -38 21z"/>
<path d="M6490 3411 c0 -13 28 -33 33 -23 3 4 -3 13 -14 20 -10 7 -19 8 -19 3z"/>
<path d="M6570 3331 c0 -13 28 -33 33 -23 3 4 -3 13 -14 20 -10 7 -19 8 -19 3z"/>
<path d="M5800 2915 c-10 -12 -10 -15 2 -15 8 0 15 7 15 15 0 8 -1 15 -2 15
-2 0 -8 -7 -15 -15z"/>
<path d="M5720 2835 c-10 -12 -10 -15 2 -15 8 0 15 7 15 15 0 8 -1 15 -2 15
-2 0 -8 -7 -15 -15z"/>
<path d="M5663 6093 c3 -5 24 -16 47 -23 43 -14 62 -30 36 -30 -8 0 -18 5 -21
10 -7 12 -25 13 -25 2 0 -5 16 -13 35 -19 23 -7 33 -8 29 -1 -4 6 2 8 16 3 20
-6 21 -5 9 8 -8 8 -16 15 -19 14 -3 -1 -18 6 -35 15 -41 21 -79 32 -72 21z"/>
<path d="M5810 6030 c0 -5 5 -10 11 -10 5 0 7 5 4 10 -3 6 -8 10 -11 10 -2 0
-4 -4 -4 -10z"/>
<path d="M5941 5881 c-8 -6 -9 -11 -3 -15 6 -3 14 -1 17 5 9 14 2 20 -14 10z"/>
<path d="M6050 5814 c0 -10 28 -33 33 -27 3 3 0 12 -8 19 -14 15 -25 18 -25 8z"/>
<path d="M5705 5600 c3 -5 8 -10 11 -10 2 0 4 5 4 10 0 6 -5 10 -11 10 -5 0
-7 -4 -4 -10z"/>
<path d="M6526 5317 c3 -10 9 -15 12 -12 3 3 0 11 -7 18 -10 9 -11 8 -5 -6z"/>
<path d="M6335 4952 c-3 -4 8 -11 26 -17 18 -6 35 -18 37 -26 3 -11 2 -12 -6
0 -6 8 -12 9 -16 3 -6 -10 14 -22 46 -28 27 -6 49 43 26 57 -19 12 -40 -1 -28
-16 8 -10 8 -15 -1 -21 -7 -4 -9 -3 -5 4 3 6 2 14 -4 17 -7 5 -8 11 -1 19 7 8
4 12 -10 13 -11 1 -17 -2 -14 -8 4 -5 -3 -5 -18 0 -14 6 -28 7 -32 3z"/>
<path d="M3916 4053 c-8 -19 14 -37 28 -23 6 6 16 5 25 -3 14 -11 14 -10 2 6
-8 10 -20 16 -28 13 -8 -3 -11 -2 -8 3 3 5 1 12 -4 15 -5 3 -12 -2 -15 -11z"/>
<path d="M3850 4049 c0 -5 5 -7 10 -4 6 3 10 8 10 11 0 2 -4 4 -10 4 -5 0 -10
-5 -10 -11z"/>
<path d="M3792 3989 c-25 -31 -24 -39 1 -14 13 13 16 13 21 0 3 -8 1 -14 -3
-12 -5 1 -9 -1 -10 -5 -1 -5 1 -8 4 -8 3 0 9 0 14 0 5 0 8 16 8 35 -1 19 -4
35 -7 34 -3 0 -15 -13 -28 -30z"/>
<path d="M3720 3910 c0 -5 5 -10 10 -10 6 0 10 5 10 10 0 6 -4 10 -10 10 -5 0
-10 -4 -10 -10z"/>
<path d="M6188 3326 c-16 -12 -15 -13 11 -12 18 1 27 5 24 14 -6 15 -13 15
-35 -2z"/>
<path d="M6110 3251 c0 -5 9 -11 19 -14 14 -3 18 -1 14 9 -6 15 -33 19 -33 5z"/>
<path d="M6030 3171 c0 -5 9 -11 19 -14 14 -3 18 -1 14 9 -6 15 -33 19 -33 5z"/>
<path d="M5950 3091 c0 -5 9 -11 19 -14 14 -3 18 -1 14 9 -6 15 -33 19 -33 5z"/>
<path d="M5873 3007 c-10 -21 -9 -23 11 -22 13 1 21 8 21 20 0 28 -20 29 -32
2z m24 -2 c0 -8 -4 -12 -9 -9 -5 3 -6 10 -3 15 9 13 12 11 12 -6z"/>
<path d="M5521 2711 c-8 -5 -9 -11 -3 -15 5 -3 15 1 22 9 14 16 3 20 -19 6z"/>
</g>
</svg>
